<?xml version="1.0" encoding="UTF-8"?><svg id="Layer_1" xmlns="http://www.w3.org/2000/svg" viewBox="0 0 1080 1080"><defs><style>.cls-1{fill:#ff0;}</style></defs><path class="cls-1" d="M838.87,174.45c3.49,3.29,6.96,6.61,10.37,10.02,42.59,42.59,76.03,92.19,99.39,147.41,24.18,57.18,36.45,117.92,36.45,180.52s-12.26,123.34-36.45,180.52c-23.36,55.23-56.8,104.82-99.39,147.41-42.59,42.59-92.19,76.03-147.41,99.39-57.18,24.19-117.92,36.45-180.52,36.45-55.63,0-109.78-9.71-161.27-28.83,60.07,29.04,127.47,45.32,198.67,45.32,252.44,0,457.08-204.64,457.08-457.08,0-146.85-69.27-277.51-176.9-361.14Z"/><path class="cls-1" d="M523.59,55.33c-252.44,0-457.08,204.64-457.08,457.08s204.64,457.08,457.08,457.08,457.08-204.64,457.08-457.08S776.02,55.33,523.59,55.33Z"/><g><g><rect x="530.37" y="512.43" width="120.92" height="120.92"/><path d="M409.39,391.45h0c66.74,0,120.92,54.19,120.92,120.92h-120.92v-120.92h0Z"/><polygon points="409.39 512.43 339.57 633.36 479.2 633.36 409.39 512.43"/><circle cx="651.73" cy="451.91" r="60.43"/></g><path d="M525.87,835.77c-86.38,0-167.58-33.64-228.66-94.71-61.08-61.07-94.71-142.28-94.71-228.65s33.64-167.58,94.71-228.66c61.08-61.08,142.28-94.71,228.66-94.71s167.58,33.64,228.66,94.71c61.08,61.08,94.71,142.28,94.71,228.66s-33.64,167.58-94.71,228.66c-61.08,61.08-142.28,94.71-228.66,94.71h0Zm0-606.67c-75.67,0-146.81,29.47-200.32,82.98-53.51,53.5-82.98,124.65-82.98,200.32s29.47,146.81,82.98,200.32,124.65,82.98,200.32,82.98,146.81-29.47,200.32-82.98c53.51-53.51,82.98-124.65,82.98-200.32s-29.47-146.81-82.98-200.32c-53.51-53.51-124.65-82.98-200.32-82.98h0Z"/></g></svg>