<?xml version="1.0" encoding="UTF-8"?><svg id="Layer_1" xmlns="http://www.w3.org/2000/svg" viewBox="0 0 1080 1080"><defs><style>.cls-1{fill:#ff0;}</style></defs><path class="cls-1" d="M838.87,174.45c3.49,3.29,6.96,6.61,10.37,10.02,42.59,42.59,76.03,92.19,99.39,147.41,24.18,57.18,36.45,117.92,36.45,180.52s-12.26,123.34-36.45,180.52c-23.36,55.23-56.8,104.82-99.39,147.41-42.59,42.59-92.19,76.03-147.41,99.39-57.18,24.19-117.92,36.45-180.52,36.45-55.63,0-109.78-9.71-161.27-28.83,60.07,29.04,127.47,45.32,198.67,45.32,252.44,0,457.08-204.64,457.08-457.08,0-146.85-69.27-277.51-176.9-361.14Z"/><g><path class="cls-1" d="M729.02,315.96c-54.27-54.27-126.41-84.15-203.15-84.15s-148.88,29.88-203.15,84.15c-54.27,54.26-84.15,126.41-84.15,203.15s29.88,148.88,84.15,203.15c54.27,54.27,126.41,84.15,203.15,84.15s148.88-29.88,203.15-84.15c54.27-54.27,84.15-126.41,84.15-203.15s-29.88-148.88-84.15-203.15Zm-392.08,325.81l70.8-122.64,70.8,122.64h-141.6Zm70.8-122.69v-122.63c67.69,0,122.63,54.95,122.63,122.63h-122.63Zm245.32,122.68h-122.63v-122.63h122.63v122.63Zm.45-122.72c-33.84,0-61.28-27.44-61.28-61.28s27.44-61.28,61.28-61.28,61.28,27.44,61.28,61.28-27.44,61.28-61.28,61.28Z"/><path class="cls-1" d="M521.3,55.33c-252.44,0-457.08,204.64-457.08,457.08s204.64,457.08,457.08,457.08,457.08-204.64,457.08-457.08S773.74,55.33,521.3,55.33Zm236.45,695.67c-61.94,61.94-144.29,96.05-231.88,96.05h0c-87.6,0-169.94-34.12-231.88-96.06-61.94-61.93-96.05-144.29-96.05-231.88s34.11-169.94,96.05-231.88c61.94-61.94,144.29-96.05,231.88-96.05s169.94,34.11,231.88,96.05c61.94,61.94,96.05,144.29,96.05,231.88s-34.11,169.94-96.05,231.88Z"/></g></svg>